<?xml version="1.0" encoding="UTF-8"?>
<!-- Created by Vectric (http://www.vectric.com/) -->
<svg width="15.00000000in" height="11.00000000in" viewBox="0.00000000 0.00000000 15.00000000 11.00000000" id="svg2" version="1.1" xmlns="http://www.w3.org/2000/svg" xmlns:xlink="http://www.w3.org/1999/xlink" xmlns:inkscape="http://www.inkscape.org/namespaces/inkscape">
    <g inkscape:groupmode="layer" id="97720701-6f96-4b11-a1c2-362893c402f2" inkscape:label="Vcarve" style="stroke:#000000;">
        <path style="fill:none;stroke-width:0.010000;stroke-linecap:round;stroke-linejoin:round;stroke-opacity:1;stroke:#000000;" d="M 5.768383,6.198268 C 5.768383,6.495518 5.663107,6.717940 5.452555,6.865533 C 5.353471,6.934685 5.229617,6.969261 5.080992,6.969261 C 4.870440,6.969261 4.705817,6.892884 4.587123,6.740130 C 4.465333,6.585312 4.404438,6.367019 4.404438,6.085251 C 4.404438,5.812771 4.453464,5.586737 4.551515,5.407149 C 4.655759,5.217239 4.791999,5.066550 4.960234,4.955081 C 5.133630,4.840516 5.327152,4.783233 5.540801,4.783233 L 5.663107,4.883865 L 5.615114,4.936503 C 5.577957,4.930310 5.542865,4.927214 5.509837,4.927214 C 5.350891,4.927214 5.211555,4.985528 5.091829,5.102158 C 5.038159,5.154796 4.991198,5.221367 4.950945,5.301873 C 4.884890,5.436048 4.840508,5.620281 4.817802,5.854572 C 4.956106,5.725557 5.039191,5.655373 5.067059,5.644020 C 5.133114,5.616153 5.210007,5.602219 5.297737,5.602219 C 5.430880,5.602219 5.540801,5.651761 5.627499,5.750844 C 5.721422,5.858185 5.768383,6.007326 5.768383,6.198268 "/>
        <path style="fill:none;stroke-width:0.010000;stroke-linecap:round;stroke-linejoin:round;stroke-opacity:1;stroke:#000000;" d="M 5.395272,6.368567 C 5.395272,6.208589 5.365341,6.085767 5.305478,6.000101 C 5.250776,5.919596 5.175947,5.879343 5.080992,5.879343 C 4.958170,5.879343 4.876633,5.932497 4.836380,6.038805 C 4.817802,6.088347 4.808513,6.156983 4.808513,6.244713 C 4.808513,6.471779 4.851346,6.632274 4.937012,6.726197 C 4.985521,6.779867 5.046416,6.806702 5.119697,6.806702 C 5.303414,6.806702 5.395272,6.660657 5.395272,6.368567 "/>
        <path style="fill:none;stroke-width:0.010000;stroke-linecap:round;stroke-linejoin:round;stroke-opacity:1;stroke:#000000;" d="M 7.349255,6.198268 C 7.349255,6.495518 7.243979,6.717940 7.033427,6.865533 C 6.934343,6.934685 6.810489,6.969261 6.661864,6.969261 C 6.451312,6.969261 6.286689,6.892884 6.167995,6.740130 C 6.046205,6.585312 5.985310,6.367019 5.985310,6.085251 C 5.985310,5.812771 6.034336,5.586737 6.132387,5.407149 C 6.236631,5.217239 6.372871,5.066550 6.541106,4.955081 C 6.714502,4.840516 6.908024,4.783233 7.121673,4.783233 L 7.243979,4.883865 L 7.195985,4.936503 C 7.158829,4.930310 7.123737,4.927214 7.090709,4.927214 C 6.931763,4.927214 6.792427,4.985528 6.672701,5.102158 C 6.619031,5.154796 6.572070,5.221367 6.531817,5.301873 C 6.465761,5.436048 6.421380,5.620281 6.398674,5.854572 C 6.536978,5.725557 6.620063,5.655373 6.647930,5.644020 C 6.713986,5.616153 6.790879,5.602219 6.878609,5.602219 C 7.011752,5.602219 7.121673,5.651761 7.208371,5.750844 C 7.302294,5.858185 7.349255,6.007326 7.349255,6.198268 "/>
        <path style="fill:none;stroke-width:0.010000;stroke-linecap:round;stroke-linejoin:round;stroke-opacity:1;stroke:#000000;" d="M 6.976144,6.368567 C 6.976144,6.208589 6.946213,6.085767 6.886350,6.000101 C 6.831648,5.919596 6.756819,5.879343 6.661864,5.879343 C 6.539042,5.879343 6.457504,5.932497 6.417252,6.038805 C 6.398674,6.088347 6.389385,6.156983 6.389385,6.244713 C 6.389385,6.471779 6.432218,6.632274 6.517883,6.726197 C 6.566393,6.779867 6.627288,6.806702 6.700568,6.806702 C 6.884286,6.806702 6.976144,6.660657 6.976144,6.368567 "/>
        <path style="fill:none;stroke-width:0.010000;stroke-linecap:round;stroke-linejoin:round;stroke-opacity:1;stroke:#000000;" d="M 8.942610,6.894948 L 8.925581,6.913526 C 8.775923,6.905269 8.609236,6.901141 8.425519,6.901141 C 8.321275,6.901141 8.149427,6.905269 7.909976,6.913526 L 7.894494,6.896496 L 7.894494,6.800509 L 7.911524,6.783479 L 8.077179,6.771094 C 8.159748,6.764901 8.208774,6.753548 8.224256,6.737034 C 8.244898,6.714327 8.256768,6.658593 8.259864,6.569831 L 8.266057,6.367019 L 8.061697,6.367019 L 7.752061,6.370116 C 7.696327,6.370116 7.614274,6.371664 7.505901,6.374760 L 7.484227,6.246261 C 7.526543,6.115182 7.639044,5.880375 7.821729,5.541840 C 8.009575,5.194016 8.155620,4.955081 8.259864,4.825034 L 8.648457,4.747625 L 8.676324,4.773944 C 8.657746,4.973143 8.648457,5.297744 8.648457,5.747748 L 8.648457,6.111570 L 8.697998,6.111570 C 8.746508,6.111570 8.818756,6.108990 8.914743,6.103829 L 8.933321,6.120859 C 8.930225,6.222007 8.930225,6.298383 8.933321,6.349989 L 8.914743,6.368567 C 8.898229,6.367535 8.871910,6.367019 8.835786,6.367019 L 8.648457,6.367019 C 8.648457,6.594085 8.659810,6.718456 8.682517,6.740130 C 8.701095,6.757676 8.740831,6.769030 8.801726,6.774190 C 8.848172,6.778319 8.889972,6.782963 8.927129,6.788124 L 8.942610,6.802057 L 8.942610,6.894948 "/>
        <path style="fill:none;stroke-width:0.010000;stroke-linecap:round;stroke-linejoin:round;stroke-opacity:1;stroke:#000000;" d="M 8.284635,5.034038 C 8.147363,5.253879 8.045699,5.425727 7.979644,5.549581 C 7.934230,5.634215 7.844952,5.821544 7.711809,6.111570 L 8.267605,6.111570 L 8.284635,5.034038 "/>
        <path style="fill:none;stroke-width:0.010000;stroke-linecap:round;stroke-linejoin:round;stroke-opacity:1;stroke:#000000;" d="M 10.596742,4.942695 C 10.357290,5.379282 10.162220,5.767358 10.011531,6.106925 C 9.875291,6.414497 9.768467,6.676139 9.691058,6.891852 L 9.666287,6.908882 C 9.619841,6.903721 9.568752,6.901141 9.513017,6.901141 C 9.458315,6.901141 9.398452,6.903721 9.333429,6.908882 L 9.317947,6.874822 L 9.985212,5.724525 C 10.039914,5.631635 10.082231,5.555774 10.112162,5.496943 L 10.259239,5.210530 L 10.248402,5.182663 L 9.856713,5.182663 L 9.579589,5.187307 C 9.489794,5.188340 9.433028,5.192984 9.409289,5.201241 C 9.391743,5.207434 9.377552,5.222916 9.366714,5.247686 C 9.355877,5.272457 9.340137,5.369993 9.319495,5.540292 L 9.302465,5.557322 L 9.206478,5.554226 L 9.189448,5.537196 C 9.195641,5.422631 9.198737,5.312710 9.198737,5.207434 C 9.198737,5.085644 9.195641,4.953017 9.189448,4.809552 L 9.209574,4.792522 C 9.456251,4.803875 9.697250,4.809552 9.932573,4.809552 C 10.239113,4.809552 10.454826,4.806972 10.579712,4.801811 L 10.596742,4.815745 L 10.596742,4.942695 "/>
    </g>
    <g inkscape:groupmode="layer" id="3d4b143d-dc08-4bb7-8286-bbf6c77990d1" inkscape:label="Thru" style="stroke:#000000;">
        <path style="fill:none;stroke-width:0.010000;stroke-linecap:round;stroke-linejoin:round;stroke-opacity:1;stroke:#000000;" d="M 5.945834,10.643372 L 6.164594,10.772336 C 6.189542,10.787044 6.177718,10.821513 6.147760,10.821414 L 0.673434,10.821414 C 0.656755,10.821414 0.643233,10.809425 0.643233,10.794635 L 0.643233,10.785682 C 0.643233,10.747095 0.635537,10.709626 0.620285,10.674266 C 0.581105,10.581833 0.496029,10.508755 0.386605,10.473518 C 0.340289,10.458506 0.291594,10.450937 0.241639,10.450937 L 0.231541,10.450937 C 0.214811,10.450937 0.201269,10.438879 0.201340,10.424045 L 0.201340,6.056335 L 0.201340,4.943665 L 0.201340,0.575841 C 0.201340,0.561052 0.214862,0.549063 0.231541,0.549063 L 0.241779,0.549063 C 0.291594,0.549063 0.340429,0.541494 0.386605,0.526482 C 0.496169,0.491121 0.581245,0.418043 0.620285,0.325858 C 0.635537,0.290250 0.643233,0.252781 0.643233,0.214194 L 0.643233,0.205240 C 0.643233,0.190407 0.656831,0.178400 0.673560,0.178462 L 6.202059,0.178462 C 6.234023,0.178462 6.244080,0.216734 6.215408,0.229261 L 5.952473,0.353007 C 5.948033,0.355097 5.943076,0.356171 5.938051,0.356132 L 0.843470,0.356132 C 0.785820,0.529211 0.625742,0.665938 0.420607,0.717303 L 0.420607,4.943417 L 0.420607,6.056087 L 0.420607,10.282201 C 0.625742,10.333566 0.785820,10.470293 0.843470,10.643372 L 5.945834,10.643372 "/>
        <path style="fill:none;stroke-width:0.010000;stroke-linecap:round;stroke-linejoin:round;stroke-opacity:1;stroke:#000000;" d="M 0.987395,10.314179 L 1.030839,10.364986 C 1.036584,10.371705 1.045563,10.375633 1.055072,10.375586 L 3.595964,10.375586 C 3.625626,10.375586 3.637515,10.341634 3.613069,10.326738 L 3.468809,10.241693 L 1.129803,10.241693 C 1.121169,10.241693 1.112949,10.238417 1.107217,10.232692 L 1.107071,10.232522 L 1.088862,10.211848 L 1.047985,10.169710 L 1.001797,10.127726 L 0.952804,10.088404 L 0.901880,10.052344 C 0.901396,10.052001 0.900901,10.051672 0.900394,10.051357 L 0.886463,10.042680 C 0.878378,10.037644 0.873583,10.029420 0.873623,10.020659 L 0.873623,6.056087 L 0.873623,4.943417 L 0.873623,0.964822 L 0.901157,0.947672 L 0.952804,0.911100 L 1.001797,0.871778 L 1.047985,0.829794 L 1.088862,0.787656 L 1.107071,0.766982 L 1.114914,0.757811 L 3.461319,0.757811 C 3.466560,0.757811 3.471711,0.756601 3.476266,0.754301 L 3.646150,0.674348 C 3.674090,0.661199 3.663325,0.623643 3.631695,0.623918 L 1.054882,0.623918 C 1.045064,0.623918 1.035859,0.628149 1.030201,0.635263 L 0.987395,0.685325 L 0.972051,0.702745 L 0.936588,0.739302 L 0.896980,0.775305 L 0.854926,0.809058 L 0.810555,0.840478 L 0.735458,0.887253 C 0.727373,0.892289 0.722578,0.900513 0.722618,0.909273 L 0.722618,4.943417 L 0.722618,6.056087 L 0.722618,10.090354 C 0.722618,10.098781 0.727091,10.106716 0.734693,10.111774 L 0.810555,10.159026 L 0.854926,10.190446 L 0.896980,10.224199 L 0.936588,10.260201 L 0.972051,10.296758 L 0.987395,10.314179 "/>
        <path style="fill:none;stroke-width:0.010000;stroke-linecap:round;stroke-linejoin:round;stroke-opacity:1;stroke:#000000;" d="M 9.054166,10.643372 L 8.835406,10.772336 C 8.810458,10.787044 8.822282,10.821513 8.852240,10.821414 L 14.326566,10.821414 C 14.343245,10.821414 14.356767,10.809425 14.356767,10.794635 L 14.356767,10.785682 C 14.356767,10.747095 14.364463,10.709626 14.379715,10.674266 C 14.418895,10.581833 14.503971,10.508755 14.613395,10.473518 C 14.659711,10.458506 14.708406,10.450937 14.758361,10.450937 L 14.768459,10.450937 C 14.785189,10.450937 14.798731,10.438879 14.798660,10.424045 L 14.798660,6.056335 L 14.798660,4.943665 L 14.798660,0.575841 C 14.798660,0.561052 14.785138,0.549063 14.768459,0.549063 L 14.758221,0.549063 C 14.708406,0.549063 14.659571,0.541494 14.613395,0.526482 C 14.503831,0.491121 14.418755,0.418043 14.379715,0.325858 C 14.364463,0.290250 14.356767,0.252781 14.356767,0.214194 L 14.356767,0.205240 C 14.356767,0.190407 14.343169,0.178400 14.326440,0.178462 L 8.797941,0.178462 C 8.765977,0.178462 8.755920,0.216734 8.784592,0.229261 L 9.047527,0.353007 C 9.051967,0.355097 9.056924,0.356171 9.061949,0.356132 L 14.156530,0.356132 C 14.214180,0.529211 14.374258,0.665938 14.579393,0.717303 L 14.579393,4.943417 L 14.579393,6.056087 L 14.579393,10.282201 C 14.374258,10.333566 14.214180,10.470293 14.156530,10.643372 L 9.054166,10.643372 "/>
        <path style="fill:none;stroke-width:0.010000;stroke-linecap:round;stroke-linejoin:round;stroke-opacity:1;stroke:#000000;" d="M 14.012605,10.314179 L 13.969161,10.364986 C 13.963416,10.371705 13.954437,10.375633 13.944928,10.375586 L 11.404036,10.375586 C 11.374374,10.375586 11.362485,10.341634 11.386931,10.326738 L 11.531191,10.241693 L 13.870197,10.241693 C 13.878831,10.241693 13.887051,10.238417 13.892783,10.232692 L 13.892929,10.232522 L 13.911138,10.211848 L 13.952015,10.169710 L 13.998203,10.127726 L 14.047196,10.088404 L 14.098120,10.052344 C 14.098604,10.052001 14.099099,10.051672 14.099606,10.051357 L 14.113537,10.042680 C 14.121622,10.037644 14.126417,10.029420 14.126377,10.020659 L 14.126377,6.056087 L 14.126377,4.943417 L 14.126377,0.964822 L 14.098843,0.947672 L 14.047196,0.911100 L 13.998203,0.871778 L 13.952015,0.829794 L 13.911138,0.787656 L 13.892929,0.766982 L 13.885086,0.757811 L 11.538681,0.757811 C 11.533440,0.757811 11.528289,0.756601 11.523734,0.754301 L 11.353850,0.674348 C 11.325910,0.661199 11.336675,0.623643 11.368305,0.623918 L 13.945118,0.623918 C 13.954936,0.623918 13.964141,0.628149 13.969799,0.635263 L 14.012605,0.685325 L 14.027949,0.702745 L 14.063412,0.739302 L 14.103020,0.775305 L 14.145074,0.809058 L 14.189445,0.840478 L 14.264542,0.887253 C 14.272627,0.892289 14.277422,0.900513 14.277382,0.909273 L 14.277382,4.943417 L 14.277382,6.056087 L 14.277382,10.090354 C 14.277382,10.098781 14.272909,10.106716 14.265307,10.111774 L 14.189445,10.159026 L 14.145074,10.190446 L 14.103020,10.224199 L 14.063412,10.260201 L 14.027949,10.296758 L 14.012605,10.314179 "/>
        <path style="fill:none;stroke-width:0.010000;stroke-linecap:round;stroke-linejoin:round;stroke-opacity:1;stroke:#000000;" d="M 7.500000,4.276816 L 2.475141,4.276816 C 2.466557,4.383637 2.433263,4.408304 2.431506,4.407243 C 2.429749,4.406182 2.285104,4.301137 2.255776,4.301137 C 2.226686,4.301137 2.176136,4.301137 2.128925,4.301137 C 2.081714,4.301137 2.064482,4.459530 2.063831,4.461130 L 1.482752,4.226028 L 2.063831,3.990926 C 2.064482,3.992526 2.081714,4.150920 2.128925,4.150920 C 2.176136,4.150920 2.226447,4.150920 2.255776,4.150920 C 2.285104,4.150920 2.431070,4.043509 2.431506,4.044814 C 2.431942,4.046118 2.466557,4.068419 2.475141,4.175241 L 7.500000,4.175241 L 12.524860,4.175279 C 12.533445,4.068458 12.568059,4.046157 12.568495,4.044853 C 12.568932,4.043548 12.714897,4.150960 12.744225,4.150960 C 12.773553,4.150960 12.823864,4.150960 12.871075,4.150961 C 12.918286,4.150961 12.935520,3.992568 12.936171,3.990968 L 13.517248,4.226074 L 12.936167,4.461172 C 12.935516,4.459572 12.918285,4.301179 12.871074,4.301178 C 12.823863,4.301178 12.773314,4.301177 12.744224,4.301177 C 12.714896,4.301177 12.570250,4.406221 12.568493,4.407282 C 12.566735,4.408343 12.533442,4.383676 12.524859,4.276855 L 7.500000,4.276816 "/>
        <path style="fill:none;stroke-width:0.010000;stroke-linecap:round;stroke-linejoin:round;stroke-opacity:1;stroke:#000000;" d="M 7.499990,7.590516 L 2.475141,7.590516 C 2.466557,7.697337 2.433263,7.722004 2.431506,7.720943 C 2.429749,7.719882 2.285104,7.614837 2.255776,7.614837 C 2.226686,7.614837 2.176136,7.614837 2.128925,7.614837 C 2.081714,7.614837 2.064482,7.773230 2.063831,7.774830 L 1.482752,7.539728 L 2.063831,7.304626 C 2.064482,7.306226 2.081714,7.464620 2.128925,7.464620 C 2.176136,7.464620 2.226447,7.464620 2.255776,7.464620 C 2.285104,7.464620 2.431070,7.357209 2.431506,7.358514 C 2.431942,7.359818 2.466557,7.382119 2.475141,7.488941 L 7.499991,7.488941 L 12.524841,7.488979 C 12.533426,7.382158 12.568040,7.359857 12.568477,7.358553 C 12.568913,7.357248 12.714878,7.464660 12.744206,7.464660 C 12.773535,7.464660 12.823845,7.464660 12.871057,7.464661 C 12.918268,7.464661 12.935501,7.306268 12.936152,7.304668 L 13.517229,7.539774 L 12.936148,7.774872 C 12.935497,7.773272 12.918267,7.614879 12.871055,7.614878 C 12.823844,7.614878 12.773295,7.614877 12.744205,7.614877 C 12.714877,7.614877 12.570231,7.719921 12.568474,7.720982 C 12.566717,7.722043 12.533423,7.697376 12.524840,7.590555 L 7.499990,7.590516 "/>
        <path style="fill:none;stroke-width:0.010000;stroke-linecap:round;stroke-linejoin:round;stroke-opacity:1;stroke:#000000;" d="M 0.643233,10.999938 C 0.532036,10.999938 0.441893,10.920010 0.441893,10.821414 L 0.441893,10.787660 L 0.441682,10.779215 L 0.441206,10.772923 L 0.440429,10.766801 L 0.439359,10.760830 L 0.438000,10.754990 L 0.436353,10.749261 L 0.434415,10.743623 L 0.432159,10.738005 L 0.428171,10.729350 L 0.424119,10.721803 L 0.419579,10.714442 L 0.414554,10.707271 L 0.409044,10.700299 L 0.403051,10.693537 L 0.396579,10.686999 L 0.389632,10.680702 L 0.382217,10.674664 L 0.374340,10.668906 L 0.366009,10.663447 L 0.357233,10.658308 L 0.348022,10.653511 L 0.338383,10.649075 L 0.328326,10.645024 L 0.317288,10.641179 L 0.308402,10.638494 L 0.299259,10.636126 L 0.290017,10.634121 L 0.280655,10.632474 L 0.271154,10.631185 L 0.261494,10.630256 L 0.251658,10.629693 L 0.239484,10.629461 L 0.201340,10.629461 C 0.090143,10.629461 -0.000000,10.549533 0.000000,10.450937 L 0.000000,6.056335 L 0.000000,4.943665 L 0.000000,0.549063 C 0.000000,0.450467 0.090143,0.370539 0.201340,0.370539 L 0.239619,0.370539 L 0.251746,0.370308 L 0.261561,0.369745 L 0.271220,0.368815 L 0.280723,0.367526 L 0.290075,0.365881 L 0.299280,0.363883 L 0.308343,0.361533 L 0.317161,0.358862 L 0.328247,0.354994 L 0.338355,0.350916 L 0.348039,0.346457 L 0.357289,0.341637 L 0.366096,0.336479 L 0.374451,0.331005 L 0.382345,0.325235 L 0.389770,0.319193 L 0.396718,0.312898 L 0.403184,0.306369 L 0.409165,0.299624 L 0.414656,0.292680 L 0.419657,0.285547 L 0.424166,0.278236 L 0.428185,0.270750 L 0.432079,0.262295 L 0.434316,0.256690 L 0.436299,0.250894 L 0.437974,0.245050 L 0.439348,0.239132 L 0.440426,0.233112 L 0.441206,0.226964 L 0.441682,0.220663 L 0.441893,0.212216 L 0.441893,0.178462 C 0.441893,0.079866 0.532036,-0.000062 0.643233,-0.000062 L 14.356767,-0.000062 C 14.467964,-0.000062 14.558107,0.079866 14.558107,0.178462 L 14.558107,0.212216 L 14.558318,0.220663 L 14.558794,0.226964 L 14.559574,0.233112 L 14.560652,0.239132 L 14.562026,0.245050 L 14.563701,0.250894 L 14.565684,0.256690 L 14.567921,0.262295 L 14.571815,0.270750 L 14.575834,0.278236 L 14.580343,0.285547 L 14.585344,0.292680 L 14.590835,0.299624 L 14.596816,0.306369 L 14.603282,0.312898 L 14.610230,0.319193 L 14.617655,0.325235 L 14.625549,0.331005 L 14.633904,0.336479 L 14.642711,0.341637 L 14.651961,0.346457 L 14.661645,0.350916 L 14.671753,0.354994 L 14.682839,0.358862 L 14.691657,0.361533 L 14.700720,0.363883 L 14.709925,0.365881 L 14.719277,0.367526 L 14.728780,0.368815 L 14.738439,0.369745 L 14.748254,0.370308 L 14.760381,0.370539 L 14.798660,0.370539 C 14.909857,0.370539 15.000000,0.450467 15.000000,0.549063 L 15.000000,4.943665 L 15.000000,6.056335 L 15.000000,10.450937 C 15.000000,10.549533 14.909857,10.629461 14.798660,10.629461 L 14.760516,10.629461 L 14.748342,10.629693 L 14.738506,10.630256 L 14.728846,10.631185 L 14.719345,10.632474 L 14.709983,10.634121 L 14.700741,10.636126 L 14.691598,10.638494 L 14.682712,10.641179 L 14.671674,10.645024 L 14.661617,10.649075 L 14.651978,10.653511 L 14.642767,10.658308 L 14.633991,10.663447 L 14.625660,10.668906 L 14.617783,10.674664 L 14.610368,10.680702 L 14.603421,10.686999 L 14.596949,10.693537 L 14.590956,10.700299 L 14.585446,10.707271 L 14.580421,10.714442 L 14.575881,10.721803 L 14.571829,10.729350 L 14.567841,10.738005 L 14.565585,10.743623 L 14.563647,10.749261 L 14.562000,10.754990 L 14.560641,10.760830 L 14.559571,10.766801 L 14.558794,10.772923 L 14.558318,10.779215 L 14.558107,10.787660 L 14.558107,10.821414 C 14.558107,10.920010 14.467964,10.999938 14.356767,10.999938 L 0.643233,10.999938 "/>
        <path style="fill:none;stroke-width:0.010000;stroke-linecap:round;stroke-linejoin:round;stroke-opacity:1;stroke:#000000;" d="M 13.600000,9.799942 C 13.600001,9.799749 13.600002,9.799556 13.600002,9.799363 C 13.600002,9.771896 13.588927,9.747015 13.571000,9.728942 C 13.552927,9.711014 13.528046,9.699940 13.500578,9.699940 C 13.500385,9.699940 13.500193,9.699940 13.500000,9.699942 C 13.499807,9.699940 13.499615,9.699940 13.499422,9.699940 C 13.471954,9.699940 13.447073,9.711014 13.429000,9.728942 C 13.411073,9.747015 13.399998,9.771896 13.399998,9.799363 C 13.399998,9.799556 13.399999,9.799749 13.400000,9.799942 C 13.399999,9.800134 13.399998,9.800327 13.399998,9.800520 C 13.399998,9.827987 13.411073,9.852868 13.429000,9.870942 C 13.447073,9.888869 13.471954,9.899943 13.499422,9.899943 C 13.499615,9.899943 13.499807,9.899943 13.500000,9.899942 C 13.500193,9.899943 13.500385,9.899943 13.500578,9.899943 C 13.528046,9.899943 13.552927,9.888869 13.571000,9.870942 C 13.588927,9.852868 13.600002,9.827987 13.600002,9.800520 C 13.600002,9.800327 13.600001,9.800134 13.600000,9.799942 "/>
        <path style="fill:none;stroke-width:0.010000;stroke-linecap:round;stroke-linejoin:round;stroke-opacity:1;stroke:#000000;" d="M 1.429000,9.728942 C 1.411073,9.747015 1.399998,9.771896 1.399998,9.799363 C 1.399998,9.799556 1.399999,9.799749 1.400000,9.799942 C 1.399999,9.800134 1.399998,9.800327 1.399998,9.800520 C 1.399998,9.827987 1.411073,9.852868 1.429000,9.870942 C 1.447073,9.888869 1.471954,9.899943 1.499422,9.899943 C 1.499615,9.899943 1.499807,9.899943 1.500000,9.899942 C 1.500193,9.899943 1.500385,9.899943 1.500578,9.899943 C 1.528046,9.899943 1.552927,9.888869 1.571000,9.870942 C 1.588927,9.852868 1.600002,9.827987 1.600002,9.800520 C 1.600002,9.800327 1.600001,9.800134 1.600000,9.799942 C 1.600001,9.799749 1.600002,9.799556 1.600002,9.799363 C 1.600002,9.771896 1.588927,9.747015 1.571000,9.728942 C 1.552927,9.711014 1.528046,9.699940 1.500578,9.699940 C 1.500385,9.699940 1.500193,9.699940 1.500000,9.699942 C 1.499807,9.699940 1.499615,9.699940 1.499422,9.699940 C 1.471954,9.699940 1.447073,9.711014 1.429000,9.728942 "/>
        <path style="fill:none;stroke-width:0.010000;stroke-linecap:round;stroke-linejoin:round;stroke-opacity:1;stroke:#000000;" d="M 1.600000,1.199942 C 1.600001,1.199749 1.600002,1.199556 1.600002,1.199363 C 1.600002,1.171896 1.588927,1.147015 1.571000,1.128942 C 1.552927,1.111014 1.528046,1.099940 1.500578,1.099940 C 1.500385,1.099940 1.500193,1.099940 1.500000,1.099942 C 1.499807,1.099940 1.499615,1.099940 1.499422,1.099940 C 1.471954,1.099940 1.447073,1.111014 1.429000,1.128942 C 1.411073,1.147015 1.399998,1.171896 1.399998,1.199363 C 1.399998,1.199556 1.399999,1.199749 1.400000,1.199942 C 1.399999,1.200134 1.399998,1.200327 1.399998,1.200520 C 1.399998,1.227987 1.411073,1.252868 1.429000,1.270942 C 1.447073,1.288869 1.471954,1.299943 1.499422,1.299943 C 1.499615,1.299943 1.499807,1.299943 1.500000,1.299942 C 1.500193,1.299943 1.500385,1.299943 1.500578,1.299943 C 1.528046,1.299943 1.552927,1.288869 1.571000,1.270942 C 1.588927,1.252868 1.600002,1.227987 1.600002,1.200520 C 1.600002,1.200327 1.600001,1.200134 1.600000,1.199942 "/>
        <path style="fill:none;stroke-width:0.010000;stroke-linecap:round;stroke-linejoin:round;stroke-opacity:1;stroke:#000000;" d="M 13.429000,1.128942 C 13.411073,1.147015 13.399998,1.171896 13.399998,1.199363 C 13.399998,1.199556 13.399999,1.199749 13.400000,1.199942 C 13.399999,1.200134 13.399998,1.200327 13.399998,1.200520 C 13.399998,1.227987 13.411073,1.252868 13.429000,1.270942 C 13.447073,1.288869 13.471954,1.299943 13.499422,1.299943 C 13.499615,1.299943 13.499807,1.299943 13.500000,1.299942 C 13.500193,1.299943 13.500385,1.299943 13.500578,1.299943 C 13.528046,1.299943 13.552927,1.288869 13.571000,1.270942 C 13.588927,1.252868 13.600002,1.227987 13.600002,1.200520 C 13.600002,1.200327 13.600001,1.200134 13.600000,1.199942 C 13.600001,1.199749 13.600002,1.199556 13.600002,1.199363 C 13.600002,1.171896 13.588927,1.147015 13.571000,1.128942 C 13.552927,1.111014 13.528046,1.099940 13.500578,1.099940 C 13.500385,1.099940 13.500193,1.099940 13.500000,1.099942 C 13.499807,1.099940 13.499615,1.099940 13.499422,1.099940 C 13.471954,1.099940 13.447073,1.111014 13.429000,1.128942 "/>
    </g>
    <g inkscape:groupmode="layer" id="6ed2b86e-324e-4e00-86e4-96a8b1f1ae1f" inkscape:label="Layer_2" style="stroke:#000000;">
        <path style="fill:none;stroke-width:0.010000;stroke-linecap:round;stroke-linejoin:round;stroke-opacity:1;stroke:#000000;" d="M 3.101757,2.359147 C 3.278072,2.359147 3.334554,2.424534 3.409863,2.588128 C 3.419277,2.604411 3.430980,2.609245 3.447518,2.609245 C 3.466345,2.609245 3.492296,2.599831 3.506290,2.592962 C 3.482883,2.520451 3.468635,2.464478 3.459221,2.410541 C 3.445228,2.338030 3.442684,2.279513 3.433270,2.256360 C 3.426146,2.240077 3.412153,2.232953 3.395616,2.232953 C 3.355671,2.232953 3.244997,2.246946 3.115750,2.246946 L 2.379704,2.246946 C 2.247913,2.246946 2.137493,2.232953 2.099838,2.232953 C 2.081011,2.232953 2.069307,2.240077 2.062184,2.254070 C 2.052770,2.279767 2.047936,2.340574 2.036232,2.410795 C 2.026819,2.464478 2.010281,2.520706 1.989164,2.593216 C 2.000868,2.600340 2.029109,2.609500 2.047936,2.609500 C 2.062184,2.609500 2.076177,2.604920 2.083301,2.588382 C 2.158610,2.424788 2.217382,2.359402 2.393697,2.359402 L 2.605377,2.359402 L 2.605377,3.593608 C 2.605377,3.654416 2.581970,3.675533 2.461882,3.694106 C 2.433641,3.696395 2.426518,3.712679 2.426518,3.733796 C 2.426518,3.743209 2.428807,3.766616 2.433641,3.778320 C 2.532358,3.771196 2.654735,3.766616 2.748872,3.766616 C 2.838174,3.766616 2.962842,3.771196 3.064102,3.778320 C 3.066392,3.766616 3.068682,3.743209 3.068682,3.733796 C 3.068682,3.710389 3.056978,3.698685 3.033317,3.694106 C 2.908650,3.677823 2.889822,3.654416 2.889822,3.593608 L 2.889822,2.359402 L 3.101757,2.359402 L 3.101757,2.359147 "/>
        <path style="fill:none;stroke-width:0.010000;stroke-linecap:round;stroke-linejoin:round;stroke-opacity:1;stroke:#000000;" d="M 4.016408,2.352023 C 4.016408,2.256106 4.030401,2.200133 4.030401,2.165022 C 4.030401,2.143905 4.020988,2.129912 3.992747,2.129912 C 3.966796,2.129912 3.889197,2.151029 3.811598,2.160188 C 3.747992,2.167312 3.639862,2.171892 3.599917,2.171892 C 3.597628,2.181305 3.595338,2.199878 3.595338,2.209292 C 3.595338,2.230409 3.607041,2.242112 3.625869,2.244402 C 3.741122,2.253816 3.762239,2.298086 3.762239,2.391713 L 3.762239,3.623630 C 3.762239,3.670444 3.724585,3.689017 3.628158,3.705555 C 3.616455,3.707844 3.604751,3.714968 3.604751,3.733541 C 3.604751,3.747534 3.607041,3.766362 3.609331,3.778065 C 3.686930,3.773486 3.762239,3.766362 3.879783,3.766362 C 3.978499,3.766362 4.060932,3.770941 4.143111,3.778065 C 4.145401,3.766362 4.147691,3.747789 4.147691,3.733541 C 4.147691,3.714968 4.138277,3.707844 4.124284,3.705555 C 4.039561,3.689272 4.016154,3.672734 4.016154,3.626175 L 4.016154,3.205359 C 4.016154,3.018358 4.138531,2.920150 4.281772,2.920150 C 4.389901,2.920150 4.429846,2.990371 4.429846,3.167958 L 4.429846,3.626175 C 4.429846,3.672988 4.401605,3.689272 4.321716,3.705555 C 4.307723,3.707844 4.298309,3.714968 4.298309,3.733541 C 4.298309,3.747534 4.300599,3.766362 4.302889,3.778065 C 4.382778,3.770941 4.467501,3.766362 4.566217,3.766362 C 4.683760,3.766362 4.756780,3.773486 4.836669,3.778065 C 4.838958,3.766362 4.841248,3.747789 4.841248,3.733541 C 4.841248,3.714968 4.829545,3.707844 4.817841,3.705555 C 4.719125,3.686982 4.683760,3.670444 4.683760,3.626175 L 4.683760,3.055758 C 4.683760,2.840770 4.563927,2.737983 4.380488,2.737983 C 4.244117,2.737983 4.119450,2.829067 4.015899,2.957805 L 4.015899,2.352023 L 4.016408,2.352023 "/>
        <path style="fill:none;stroke-width:0.010000;stroke-linecap:round;stroke-linejoin:round;stroke-opacity:1;stroke:#000000;" d="M 4.975838,3.294152 C 4.975838,2.955261 5.272241,2.737729 5.495625,2.737729 C 5.796607,2.737729 5.949516,2.927020 5.949516,3.221642 C 5.949516,3.233345 5.944936,3.237925 5.932978,3.237925 L 5.255704,3.265911 C 5.255704,3.508886 5.373247,3.649327 5.592051,3.649327 C 5.688477,3.649327 5.787194,3.614217 5.857669,3.551120 C 5.869372,3.541706 5.881076,3.534837 5.895324,3.534837 C 5.911861,3.534837 5.932978,3.546540 5.951806,3.583940 C 5.836552,3.721838 5.688477,3.794348 5.467384,3.794348 C 5.222629,3.794348 4.975838,3.637624 4.975838,3.294152 "/>
        <path style="fill:none;stroke-width:0.010000;stroke-linecap:round;stroke-linejoin:round;stroke-opacity:1;stroke:#000000;" d="M 5.250870,3.163124 L 5.629451,3.146841 C 5.655402,3.144552 5.664816,3.137428 5.664816,3.116565 C 5.664816,2.997240 5.601210,2.838480 5.460260,2.838480 C 5.333303,2.838226 5.250870,2.945847 5.250870,3.163124 "/>
        <path style="fill:none;stroke-width:0.010000;stroke-linecap:round;stroke-linejoin:round;stroke-opacity:1;stroke:#000000;" d="M 6.770031,3.006654 C 6.770031,3.457746 7.033359,3.794348 7.555435,3.794348 C 7.743454,3.794348 7.898906,3.782645 8.054104,3.754658 C 8.075222,3.628464 8.126869,3.469450 8.164524,3.359539 C 8.145697,3.352415 8.117456,3.347836 8.103463,3.347836 C 8.082345,3.347836 8.063518,3.359539 8.054104,3.382946 C 7.974216,3.586230 7.882369,3.677568 7.633288,3.677568 C 7.318058,3.677568 7.080681,3.368953 7.080681,2.959840 C 7.080681,2.576425 7.271244,2.338030 7.616751,2.338030 C 7.837845,2.338030 7.941395,2.408251 8.004746,2.613825 C 8.011870,2.639521 8.030697,2.644101 8.054104,2.644101 C 8.072932,2.644101 8.091759,2.639521 8.110586,2.634687 C 8.077766,2.508494 8.056394,2.368306 8.054104,2.284092 C 7.889493,2.239568 7.760246,2.218705 7.593090,2.218705 C 7.031069,2.218705 6.770031,2.623238 6.770031,3.006654 "/>
        <path style="fill:none;stroke-width:0.010000;stroke-linecap:round;stroke-linejoin:round;stroke-opacity:1;stroke:#000000;" d="M 8.862916,3.794348 C 8.533692,3.794348 8.317432,3.572237 8.317432,3.266166 C 8.317432,2.964674 8.547940,2.737983 8.865460,2.737983 C 9.192394,2.737983 9.410943,2.962385 9.410943,3.266166 C 9.410689,3.569947 9.177892,3.794348 8.862916,3.794348 "/>
        <path style="fill:none;stroke-width:0.010000;stroke-linecap:round;stroke-linejoin:round;stroke-opacity:1;stroke:#000000;" d="M 8.886323,3.693851 C 9.053224,3.693851 9.126244,3.553664 9.126244,3.322139 C 9.126244,3.048634 9.025238,2.838226 8.839254,2.838226 C 8.674643,2.838226 8.601623,2.976123 8.601623,3.214518 C 8.601878,3.490313 8.702884,3.693851 8.886323,3.693851 "/>
        <path style="fill:none;stroke-width:0.010000;stroke-linecap:round;stroke-linejoin:round;stroke-opacity:1;stroke:#000000;" d="M 10.746411,3.240215 C 10.746411,3.588520 10.447718,3.794094 10.229168,3.794094 C 10.121038,3.794094 10.003495,3.770687 9.883407,3.712170 C 9.808098,3.723873 9.763574,3.786970 9.737623,3.786970 C 9.725919,3.786970 9.714216,3.784680 9.697678,3.775267 C 9.707092,3.684183 9.711672,3.607093 9.711672,3.527458 L 9.711672,2.391459 C 9.711672,2.298086 9.692844,2.255851 9.577591,2.244148 C 9.558763,2.241858 9.547060,2.230155 9.547060,2.209037 C 9.547060,2.199624 9.549350,2.185630 9.551639,2.171637 C 9.591584,2.171637 9.697424,2.167058 9.761030,2.159934 C 9.838629,2.150520 9.916228,2.129657 9.942179,2.129657 C 9.970420,2.129657 9.979834,2.143651 9.979834,2.164768 C 9.979834,2.220741 9.965840,2.298086 9.965840,2.396293 L 9.965840,2.936179 C 10.050563,2.812275 10.142156,2.737474 10.318471,2.737474 C 10.558138,2.737729 10.746411,2.920150 10.746411,3.240215 "/>
        <path style="fill:none;stroke-width:0.010000;stroke-linecap:round;stroke-linejoin:round;stroke-opacity:1;stroke:#000000;" d="M 10.461711,3.298732 C 10.461711,3.060337 10.379532,2.868757 10.200673,2.868757 C 10.083129,2.868757 9.965586,3.027771 9.965586,3.170248 L 9.965586,3.583940 C 10.033771,3.661031 10.118494,3.693851 10.217210,3.693851 C 10.379532,3.693851 10.461711,3.544250 10.461711,3.298732 "/>
        <path style="fill:none;stroke-width:0.010000;stroke-linecap:round;stroke-linejoin:round;stroke-opacity:1;stroke:#000000;" d="M 10.887361,2.172146 C 10.927306,2.172146 11.033146,2.167566 11.096751,2.160443 C 11.174351,2.151029 11.251950,2.130166 11.277901,2.130166 C 11.306142,2.130166 11.315555,2.144159 11.315555,2.165277 C 11.315555,2.221250 11.301308,2.298594 11.301308,2.396802 L 11.301308,2.936688 C 11.386031,2.812784 11.477623,2.737983 11.653938,2.737983 C 11.893859,2.737983 12.081878,2.920405 12.081878,3.240469 C 12.081878,3.588774 11.783185,3.794348 11.564636,3.794348 C 11.456506,3.794348 11.338962,3.770941 11.218875,3.712424 C 11.143565,3.724128 11.099041,3.787225 11.073090,3.787225 C 11.061387,3.787225 11.049683,3.784935 11.033146,3.775521 C 11.042559,3.684438 11.047139,3.607347 11.047139,3.527713 L 11.047139,2.391713 C 11.047139,2.298340 11.028312,2.256106 10.913058,2.244402 C 10.894231,2.242112 10.882527,2.230409 10.882527,2.209292 C 10.882782,2.200133 10.885071,2.186139 10.887361,2.172146 "/>
        <path style="fill:none;stroke-width:0.010000;stroke-linecap:round;stroke-linejoin:round;stroke-opacity:1;stroke:#000000;" d="M 11.301308,3.583940 C 11.369493,3.661031 11.454216,3.693851 11.552932,3.693851 C 11.715254,3.693851 11.797433,3.544250 11.797433,3.298732 C 11.797433,3.060337 11.715254,2.868757 11.536395,2.868757 C 11.418851,2.868757 11.301308,3.027771 11.301308,3.170248 L 11.301308,3.583940 "/>
        <path style="fill:none;stroke-width:0.010000;stroke-linecap:round;stroke-linejoin:round;stroke-opacity:1;stroke:#000000;" d="M 12.615658,3.693851 C 12.458170,3.693851 12.361744,3.619051 12.350040,3.488277 C 12.347750,3.462581 12.321799,3.453167 12.286434,3.453167 L 12.255904,3.453167 C 12.255904,3.544250 12.260483,3.640168 12.267607,3.719548 C 12.373447,3.775521 12.516942,3.794348 12.615658,3.794348 C 12.895523,3.794348 13.010777,3.644748 13.010777,3.467160 C 13.010777,3.270745 12.890944,3.200779 12.683843,3.137682 C 12.505238,3.083999 12.474453,3.044309 12.474453,2.974088 C 12.474453,2.896998 12.535515,2.838480 12.639065,2.838480 C 12.758898,2.838480 12.841331,2.894454 12.862448,3.020902 C 12.864738,3.032605 12.874152,3.044309 12.900103,3.046599 L 12.958875,3.048888 C 12.958875,2.988081 12.951751,2.857308 12.944882,2.810494 C 12.878986,2.773094 12.754319,2.737983 12.632195,2.737983 C 12.422805,2.737983 12.277021,2.868757 12.277021,3.058302 C 12.277021,3.212483 12.364033,3.315524 12.585127,3.378621 C 12.749739,3.427725 12.803931,3.474538 12.803931,3.553918 C 12.803931,3.637624 12.728622,3.693851 12.615658,3.693851 "/>
        <path style="fill:none;stroke-width:0.010000;stroke-linecap:round;stroke-linejoin:round;stroke-opacity:1;stroke:#000000;" d="M 2.745746,8.753548 C 2.737232,8.754873 2.730230,8.760549 2.730230,8.778714 C 2.730230,8.784391 2.731744,8.795366 2.733069,8.802367 C 2.778103,8.799529 2.841681,8.795366 2.878389,8.795366 C 2.919261,8.795366 2.961646,8.798204 3.013681,8.802367 C 3.015195,8.794041 3.016520,8.784202 3.016520,8.778714 C 3.016520,8.762063 3.010843,8.755062 3.001004,8.753548 C 2.926262,8.739546 2.913584,8.727057 2.913584,8.693566 C 2.913584,8.678239 2.938940,8.113419 2.944616,8.033947 L 3.274615,8.810692 C 3.278778,8.812017 3.285968,8.812017 3.290131,8.812017 C 3.301484,8.812017 3.306971,8.803691 3.315486,8.786851 L 3.607263,8.109067 C 3.611426,8.177375 3.635456,8.644558 3.636970,8.689214 C 3.636970,8.726868 3.620130,8.739357 3.543874,8.753359 C 3.538198,8.754684 3.529683,8.760360 3.529683,8.778525 C 3.529683,8.784202 3.531196,8.795176 3.532521,8.802178 C 3.577555,8.799339 3.656649,8.795176 3.715875,8.795176 C 3.780777,8.795176 3.828649,8.799339 3.893552,8.802178 C 3.895065,8.795176 3.896390,8.784013 3.896390,8.778525 C 3.896390,8.761874 3.892227,8.754873 3.882388,8.753359 C 3.810484,8.742195 3.797807,8.729707 3.794968,8.693376 C 3.787967,8.553922 3.759774,7.996103 3.759774,7.984939 C 3.759774,7.954285 3.769613,7.943121 3.843030,7.931957 C 3.854383,7.929119 3.858546,7.920793 3.858546,7.906791 C 3.858546,7.901115 3.858546,7.890140 3.855708,7.881625 C 3.807835,7.885788 3.717578,7.888626 3.683707,7.888626 C 3.620319,7.888626 3.611804,7.896952 3.603289,7.915117 L 3.332516,8.552408 L 3.064581,7.915117 C 3.056066,7.896952 3.047741,7.888626 2.984163,7.888626 C 2.946130,7.888626 2.817839,7.885788 2.769777,7.881625 C 2.766939,7.889951 2.766939,7.901115 2.766939,7.906791 C 2.766939,7.920793 2.771102,7.930444 2.782455,7.931957 C 2.851520,7.943121 2.865712,7.954285 2.865712,7.984939 C 2.865712,7.994778 2.836193,8.619392 2.831841,8.693376 C 2.830328,8.725733 2.803458,8.741060 2.745746,8.753548 "/>
        <path style="fill:none;stroke-width:0.010000;stroke-linecap:round;stroke-linejoin:round;stroke-opacity:1;stroke:#000000;" d="M 4.026005,8.753548 C 4.016166,8.754873 4.011814,8.761874 4.011814,8.774552 C 4.011814,8.780039 4.013328,8.791203 4.015977,8.802367 C 4.072364,8.799529 4.147106,8.795366 4.202169,8.795366 L 4.519490,8.795366 C 4.568876,8.795366 4.663297,8.802367 4.690166,8.802367 C 4.708520,8.802367 4.715521,8.796879 4.731037,8.728382 C 4.740876,8.680888 4.753554,8.622419 4.771908,8.579088 C 4.760555,8.572087 4.746553,8.566599 4.735200,8.566599 C 4.728199,8.566599 4.719684,8.569438 4.714007,8.580602 C 4.671622,8.664237 4.630751,8.727057 4.519490,8.727057 L 4.457426,8.727057 C 4.341813,8.727057 4.296778,8.717218 4.296778,8.678239 L 4.296778,8.362999 L 4.498486,8.362999 C 4.530843,8.362999 4.540872,8.386652 4.553549,8.454960 C 4.556388,8.468962 4.564902,8.474449 4.580418,8.474449 C 4.586095,8.474449 4.600097,8.473125 4.605774,8.470287 C 4.600097,8.413142 4.598773,8.367162 4.598773,8.333670 C 4.598773,8.294691 4.601611,8.230546 4.605774,8.188728 C 4.600097,8.187404 4.586095,8.185890 4.578905,8.185890 C 4.566227,8.185890 4.554874,8.190053 4.553549,8.204055 C 4.543710,8.266876 4.535195,8.296016 4.498486,8.296016 L 4.296778,8.296016 L 4.296778,7.955799 L 4.487133,7.955799 C 4.592907,7.955799 4.619587,7.997616 4.671811,8.091091 C 4.677488,8.100930 4.684489,8.103579 4.694329,8.103579 C 4.704168,8.103579 4.716846,8.099417 4.725360,8.095254 C 4.711169,8.053436 4.704168,8.025621 4.698491,7.993454 C 4.685814,7.925145 4.692815,7.880490 4.658944,7.880490 C 4.636427,7.880490 4.571525,7.888815 4.486944,7.888815 L 4.200655,7.888815 C 4.155621,7.888815 4.094881,7.887491 4.014463,7.881814 C 4.013138,7.890140 4.011625,7.898465 4.011625,7.906980 C 4.011625,7.920983 4.015788,7.929308 4.025816,7.932147 C 4.104721,7.947473 4.125913,7.954474 4.125913,7.992129 L 4.125913,8.693566 C 4.126102,8.729896 4.096584,8.741060 4.026005,8.753548 "/>
        <path style="fill:none;stroke-width:0.010000;stroke-linecap:round;stroke-linejoin:round;stroke-opacity:1;stroke:#000000;" d="M 5.289424,8.802367 C 5.235875,8.798204 5.151294,8.795366 5.059522,8.795366 C 4.996134,8.795366 4.931231,8.798204 4.876168,8.802367 C 4.874844,8.795366 4.873330,8.784202 4.873330,8.775876 C 4.873330,8.761874 4.880331,8.754873 4.888846,8.753548 C 4.966426,8.739546 4.981942,8.729896 4.981942,8.693566 L 4.981942,7.992129 C 4.981942,7.955799 4.960750,7.940472 4.883170,7.932147 C 4.874655,7.930822 4.867654,7.922307 4.867654,7.906980 C 4.867654,7.898655 4.868978,7.888815 4.870492,7.881814 C 4.924041,7.885977 4.998783,7.888815 5.052332,7.888815 L 5.261041,7.888815 C 5.461235,7.888815 5.579686,7.989291 5.579686,8.138396 C 5.579686,8.233195 5.516298,8.323831 5.406172,8.365648 L 5.628883,8.686375 C 5.664078,8.735194 5.710626,8.747682 5.748659,8.757522 C 5.757174,8.758846 5.764175,8.763009 5.764175,8.779850 C 5.764175,8.786851 5.764175,8.798015 5.761337,8.806340 C 5.718952,8.803502 5.610529,8.799339 5.556980,8.799339 C 5.517433,8.799339 5.476562,8.763009 5.439853,8.710028 L 5.219980,8.390625 L 5.152240,8.390625 L 5.152240,8.683537 C 5.152240,8.726679 5.186110,8.739357 5.272016,8.750521 C 5.284693,8.751845 5.291694,8.760360 5.291694,8.777011 C 5.292262,8.782877 5.290748,8.795366 5.289424,8.802367 "/>
        <path style="fill:none;stroke-width:0.010000;stroke-linecap:round;stroke-linejoin:round;stroke-opacity:1;stroke:#000000;" d="M 5.152618,8.322695 L 5.200491,8.322695 C 5.317428,8.322695 5.393684,8.282203 5.393684,8.145586 C 5.393684,8.031298 5.344297,7.955988 5.199166,7.955988 L 5.152618,7.955988 L 5.152618,8.322695 "/>
        <path style="fill:none;stroke-width:0.010000;stroke-linecap:round;stroke-linejoin:round;stroke-opacity:1;stroke:#000000;" d="M 6.197488,7.932147 C 6.206003,7.929308 6.211490,7.920983 6.211490,7.908494 C 6.211490,7.903007 6.210166,7.890329 6.208652,7.882003 C 6.148102,7.886166 6.074684,7.889004 6.023974,7.889004 C 5.971749,7.889004 5.898521,7.886166 5.839295,7.882003 C 5.836457,7.890329 5.836457,7.903007 5.836457,7.908494 C 5.836457,7.919658 5.840620,7.929497 5.850459,7.932147 C 5.928039,7.943310 5.939393,7.955799 5.939393,7.992129 L 5.939393,8.693566 C 5.939393,8.729896 5.928039,8.741060 5.850459,8.753548 C 5.840620,8.754873 5.836457,8.763388 5.836457,8.775876 C 5.836457,8.781363 5.836457,8.795366 5.839295,8.802367 C 5.898521,8.799529 5.970425,8.795366 6.023974,8.795366 C 6.076198,8.795366 6.148102,8.799529 6.208652,8.802367 C 6.210166,8.795366 6.211490,8.781363 6.211490,8.775876 C 6.211490,8.763388 6.205814,8.754873 6.197488,8.753548 C 6.118583,8.741060 6.108555,8.729896 6.108555,8.693566 L 6.108555,7.992129 C 6.108555,7.955799 6.118583,7.943310 6.197488,7.932147 "/>
        <path style="fill:none;stroke-width:0.010000;stroke-linecap:round;stroke-linejoin:round;stroke-opacity:1;stroke:#000000;" d="M 6.435715,8.693566 L 6.435715,7.992129 C 6.435715,7.955799 6.410360,7.943310 6.344133,7.932147 C 6.330131,7.929308 6.327292,7.920983 6.327292,7.906980 C 6.327292,7.901304 6.327292,7.892978 6.330131,7.881814 C 6.409035,7.887301 6.448582,7.888815 6.506294,7.888815 L 6.792583,7.888815 C 7.111229,7.888815 7.277553,8.093740 7.277553,8.341996 C 7.277553,8.560923 7.129583,8.795176 6.796746,8.795176 L 6.507619,8.795176 C 6.458232,8.795176 6.387843,8.799339 6.329942,8.802178 C 6.327103,8.795176 6.325779,8.784013 6.325779,8.775687 C 6.325779,8.760360 6.334294,8.754684 6.344133,8.753359 C 6.401845,8.742384 6.435715,8.731220 6.435715,8.693566 "/>
        <path style="fill:none;stroke-width:0.010000;stroke-linecap:round;stroke-linejoin:round;stroke-opacity:1;stroke:#000000;" d="M 6.605067,8.676914 C 6.605067,8.714569 6.624745,8.727057 6.729195,8.727057 C 6.981613,8.727057 7.091550,8.588927 7.091550,8.368676 C 7.091550,8.078602 6.953420,7.955799 6.699487,7.955799 L 6.605067,7.955799 L 6.605067,8.676914 "/>
        <path style="fill:none;stroke-width:0.010000;stroke-linecap:round;stroke-linejoin:round;stroke-opacity:1;stroke:#000000;" d="M 7.755521,7.932147 C 7.764036,7.929308 7.769523,7.920983 7.769523,7.908494 C 7.769523,7.903007 7.768199,7.890329 7.766685,7.882003 C 7.706135,7.886166 7.632718,7.889004 7.582007,7.889004 C 7.529782,7.889004 7.456554,7.886166 7.397329,7.882003 C 7.394490,7.890329 7.394490,7.903007 7.394490,7.908494 C 7.394490,7.919658 7.398653,7.929497 7.408492,7.932147 C 7.486072,7.943310 7.497426,7.955799 7.497426,7.992129 L 7.497426,8.693566 C 7.497426,8.729896 7.486072,8.741060 7.408492,8.753548 C 7.398653,8.754873 7.394490,8.763388 7.394490,8.775876 C 7.394490,8.781363 7.394490,8.795366 7.397329,8.802367 C 7.456554,8.799529 7.528458,8.795366 7.582007,8.795366 C 7.634231,8.795366 7.706135,8.799529 7.766685,8.802367 C 7.768199,8.795366 7.769523,8.781363 7.769523,8.775876 C 7.769523,8.763388 7.763847,8.754873 7.755521,8.753548 C 7.676616,8.741060 7.666588,8.729896 7.666588,8.693566 L 7.666588,7.992129 C 7.666777,7.955799 7.676616,7.943310 7.755521,7.932147 "/>
        <path style="fill:none;stroke-width:0.010000;stroke-linecap:round;stroke-linejoin:round;stroke-opacity:1;stroke:#000000;" d="M 8.497261,8.710217 C 8.497261,8.703216 8.495748,8.696215 8.493098,8.689214 L 8.415518,8.484289 L 8.116552,8.484289 L 8.040486,8.683726 C 8.036323,8.693566 8.033484,8.704730 8.033484,8.711541 C 8.033484,8.731031 8.051839,8.745033 8.111064,8.753359 C 8.123742,8.754684 8.130743,8.761685 8.130743,8.775687 C 8.130743,8.784013 8.127905,8.795176 8.126580,8.802178 C 8.074356,8.798015 8.016644,8.795176 7.963095,8.795176 C 7.925062,8.795176 7.887029,8.796501 7.836128,8.802178 C 7.833290,8.795176 7.831966,8.782688 7.831966,8.777011 C 7.831966,8.760360 7.837642,8.753359 7.851644,8.750521 C 7.909546,8.739357 7.933387,8.729517 7.946065,8.700378 L 8.285903,7.895816 C 8.294418,7.877651 8.305582,7.872164 8.318260,7.872164 C 8.325261,7.872164 8.335100,7.873488 8.345129,7.875002 L 8.686292,8.704730 C 8.696131,8.731220 8.730001,8.743709 8.772386,8.750710 C 8.787902,8.752034 8.793579,8.760549 8.793579,8.774362 C 8.793579,8.782688 8.792065,8.795366 8.790741,8.802178 C 8.728677,8.798015 8.669451,8.795176 8.620065,8.795176 C 8.566516,8.795176 8.464905,8.799339 8.411356,8.802178 C 8.408517,8.795176 8.407193,8.784013 8.407193,8.778525 C 8.407193,8.763198 8.414194,8.754873 8.424033,8.753359 C 8.473230,8.743709 8.497261,8.732545 8.497261,8.710217 "/>
        <path style="fill:none;stroke-width:0.010000;stroke-linecap:round;stroke-linejoin:round;stroke-opacity:1;stroke:#000000;" d="M 8.390163,8.415981 L 8.268873,8.098092 L 8.143421,8.415981 L 8.390163,8.415981 "/>
        <path style="fill:none;stroke-width:0.010000;stroke-linecap:round;stroke-linejoin:round;stroke-opacity:1;stroke:#000000;" d="M 9.642228,8.812017 C 9.647905,8.812017 9.669097,8.810692 9.676099,8.809179 L 9.676099,7.991940 C 9.676099,7.954285 9.694453,7.940283 9.756517,7.931957 C 9.766356,7.930633 9.773357,7.922118 9.773357,7.906791 C 9.773357,7.901115 9.772033,7.890140 9.770519,7.881625 C 9.728134,7.887112 9.685938,7.888626 9.629551,7.888626 C 9.573163,7.888626 9.529453,7.887301 9.482905,7.881625 C 9.480067,7.889951 9.480067,7.901115 9.480067,7.906791 C 9.480067,7.919280 9.485744,7.929119 9.498421,7.931957 C 9.569000,7.940283 9.594356,7.954285 9.594356,7.994778 L 9.594356,8.505103 L 9.119226,7.905467 C 9.107873,7.892978 9.098033,7.888815 9.043159,7.888815 C 9.007965,7.888815 8.952902,7.887491 8.861320,7.881814 C 8.859995,7.890140 8.858481,7.899979 8.858481,7.906980 C 8.858481,7.922307 8.865482,7.929308 8.875322,7.932147 C 8.945901,7.940472 8.957065,7.955799 8.957065,7.985128 L 8.957065,8.693566 C 8.957065,8.728382 8.940224,8.741060 8.872483,8.753548 C 8.863969,8.754873 8.855643,8.761874 8.855643,8.778714 C 8.855643,8.784391 8.856967,8.795366 8.858481,8.802367 C 8.899353,8.798204 8.952902,8.795366 9.003802,8.795366 C 9.056026,8.795366 9.095384,8.799529 9.141932,8.802367 C 9.143446,8.795366 9.144770,8.784202 9.144770,8.778714 C 9.144770,8.760549 9.136255,8.755062 9.127930,8.753548 C 9.049025,8.739546 9.038997,8.729896 9.038997,8.693566 L 9.038997,8.081441 L 9.597383,8.787040 C 9.614035,8.806530 9.629551,8.812017 9.642228,8.812017 "/>
        <path style="fill:none;stroke-width:0.010000;stroke-linecap:round;stroke-linejoin:round;stroke-opacity:1;stroke:#000000;" d="M 10.564295,8.391004 L 10.564295,8.683915 C 10.564295,8.727057 10.598165,8.739735 10.684071,8.750899 C 10.696748,8.752224 10.703749,8.760739 10.703749,8.777390 C 10.703749,8.782877 10.702236,8.795555 10.700911,8.802556 C 10.647362,8.798393 10.562781,8.795555 10.471010,8.795555 C 10.407621,8.795555 10.342719,8.798393 10.287656,8.802556 C 10.286142,8.795555 10.284818,8.784391 10.284818,8.776065 C 10.284818,8.762063 10.291819,8.755062 10.300334,8.753737 C 10.377914,8.739735 10.393430,8.730085 10.393430,8.693755 L 10.393430,7.992318 C 10.393430,7.955988 10.372237,7.940661 10.294657,7.932336 C 10.286142,7.931011 10.279141,7.922496 10.279141,7.907170 C 10.279141,7.898844 10.280466,7.889004 10.281979,7.882003 C 10.335528,7.886166 10.410270,7.889004 10.463819,7.889004 L 10.672528,7.889004 C 10.872722,7.889004 10.991174,7.989480 10.991174,8.138585 C 10.991174,8.233384 10.927785,8.324020 10.817660,8.365838 L 11.040371,8.686565 C 11.075566,8.735383 11.122114,8.747872 11.160147,8.757711 C 11.168662,8.759036 11.175663,8.763198 11.175663,8.780039 C 11.175663,8.787040 11.175663,8.798204 11.172825,8.806530 C 11.130439,8.803691 11.022017,8.799529 10.968467,8.799529 C 10.928921,8.799529 10.888049,8.763198 10.851530,8.710217 L 10.631468,8.390814 L 10.564295,8.390814 L 10.564295,8.391004 "/>
        <path style="fill:none;stroke-width:0.010000;stroke-linecap:round;stroke-linejoin:round;stroke-opacity:1;stroke:#000000;" d="M 10.564295,8.322695 L 10.612167,8.322695 C 10.729105,8.322695 10.805360,8.282203 10.805360,8.145586 C 10.805360,8.031298 10.755974,7.955988 10.610843,7.955988 L 10.564295,7.955988 L 10.564295,8.322695 "/>
        <path style="fill:none;stroke-width:0.010000;stroke-linecap:round;stroke-linejoin:round;stroke-opacity:1;stroke:#000000;" d="M 11.356746,8.693566 L 11.356746,7.992129 C 11.356746,7.955799 11.331390,7.943310 11.265164,7.932147 C 11.251161,7.929308 11.248323,7.920983 11.248323,7.906980 C 11.248323,7.901304 11.248323,7.892978 11.251161,7.881814 C 11.330066,7.887301 11.369613,7.888815 11.427325,7.888815 L 11.713614,7.888815 C 12.032259,7.888815 12.198583,8.093740 12.198583,8.341996 C 12.198583,8.560923 12.050614,8.795176 11.717777,8.795176 L 11.428649,8.795176 C 11.379263,8.795176 11.308873,8.799339 11.250972,8.802178 C 11.248134,8.795176 11.246809,8.784013 11.246809,8.775687 C 11.246809,8.760360 11.255324,8.754684 11.265164,8.753359 C 11.322876,8.742384 11.356746,8.731220 11.356746,8.693566 "/>
        <path style="fill:none;stroke-width:0.010000;stroke-linecap:round;stroke-linejoin:round;stroke-opacity:1;stroke:#000000;" d="M 11.526097,8.676914 C 11.526097,8.714569 11.545776,8.727057 11.650225,8.727057 C 11.902644,8.727057 12.012580,8.588927 12.012580,8.368676 C 12.012580,8.078602 11.874450,7.955799 11.620518,7.955799 L 11.526097,7.955799 L 11.526097,8.676914 "/>
        <path style="fill:none;stroke-width:0.010000;stroke-linecap:round;stroke-linejoin:round;stroke-opacity:1;stroke:#000000;" d="M 3.821971,10.211546 C 3.802626,10.158526 3.795884,10.102648 3.811712,10.048328 C 3.857146,9.898625 4.079037,9.845345 4.209181,9.943847 C 4.301514,10.003885 4.299462,10.159306 4.177231,10.189975 C 4.177228,10.189967 4.177231,10.189715 4.176938,10.189195 C 4.163455,10.194133 4.148213,10.196732 4.132677,10.196732 C 4.070243,10.196732 4.019533,10.154368 4.019533,10.101868 C 4.019533,10.049368 4.070243,10.007004 4.132677,10.007004 C 4.135902,10.007004 4.138540,10.007523 4.141764,10.007783 C 4.098382,9.977375 4.028034,9.973476 3.980549,9.996608 C 3.901113,10.030655 3.890268,10.115123 3.918114,10.182437 C 4.010154,10.386201 4.361896,10.316547 4.545681,10.251571 C 4.639186,10.218304 4.725363,10.175680 4.810074,10.123700 C 4.896838,10.070420 4.994739,10.028835 5.097624,10.001026 C 5.254149,9.750740 5.644876,9.684465 5.938288,9.765035 C 6.238442,9.843005 6.458867,10.086534 6.692776,10.242215 C 6.792729,10.306151 6.942806,10.354493 7.057415,10.315767 C 7.110763,10.294715 7.123953,10.255470 7.110763,10.205309 C 7.099331,10.159046 7.062398,10.113563 7.017844,10.084974 C 7.011689,10.081076 7.003774,10.075878 6.999085,10.074578 C 6.964790,10.063662 6.946909,10.030395 6.959220,9.999986 C 6.976808,9.955543 7.042759,9.948526 7.075002,9.984392 C 7.123953,10.028835 7.166455,10.074058 7.195474,10.128378 L 7.373104,10.128898 C 7.360207,9.981533 7.261719,9.876273 7.071778,9.858340 C 7.072071,9.843525 7.072950,9.811557 7.073244,9.796743 L 7.074123,9.764775 L 7.109004,9.758537 C 7.119263,9.756718 7.128643,9.752040 7.134799,9.746582 C 7.172025,9.689663 7.133626,9.616891 7.085848,9.570888 C 7.019896,9.504353 6.912908,9.479922 6.815592,9.495257 C 6.686913,9.511111 6.580218,9.620270 6.629169,9.736186 C 6.649394,9.788426 6.698345,9.835468 6.752865,9.848983 C 6.801229,9.863538 6.872164,9.843265 6.873630,9.795703 C 6.873337,9.785307 6.870699,9.774911 6.864543,9.766594 C 6.850180,9.787906 6.823213,9.802721 6.791850,9.802721 C 6.745537,9.802721 6.708018,9.771273 6.708018,9.732547 C 6.708018,9.702918 6.729709,9.677708 6.760779,9.667572 L 6.759607,9.662374 C 6.829076,9.648339 6.930202,9.673290 6.957462,9.743203 C 6.990291,9.814156 6.944565,9.894206 6.870405,9.920976 C 6.624772,10.004665 6.432779,9.704218 6.580218,9.534242 C 6.742020,9.339056 7.125419,9.387137 7.220682,9.615331 C 7.247942,9.672770 7.245597,9.754639 7.198698,9.801681 C 7.222441,9.808698 7.245891,9.817535 7.268461,9.828451 C 7.383070,9.882770 7.451367,9.994268 7.465143,10.106026 C 7.466316,10.113823 7.466902,10.121620 7.467488,10.129417 L 7.500024,10.129417 L 7.532561,10.129417 C 7.533147,10.121620 7.534026,10.114083 7.534905,10.106026 C 7.548682,9.994268 7.616979,9.882770 7.731588,9.828451 C 7.754158,9.817535 7.777608,9.808698 7.801350,9.801681 C 7.754451,9.754379 7.751813,9.672510 7.779366,9.615331 C 7.875803,9.386878 8.256857,9.339056 8.419831,9.534242 C 8.567269,9.704218 8.374984,10.004405 8.129643,9.920976 C 8.055777,9.894206 8.009758,9.813896 8.042587,9.743203 C 8.070140,9.673290 8.170973,9.648339 8.240442,9.662374 C 8.240430,9.662426 8.240149,9.664453 8.239270,9.667572 C 8.270047,9.677968 8.292031,9.703178 8.292031,9.732547 C 8.292031,9.771273 8.254512,9.802721 8.208199,9.802721 C 8.177128,9.802721 8.150162,9.788166 8.135799,9.767114 C 8.128764,9.775951 8.124953,9.787386 8.126712,9.801941 C 8.134919,9.845605 8.200285,9.863018 8.247184,9.849243 C 8.301704,9.835728 8.350655,9.788686 8.370880,9.736446 C 8.443280,9.539960 8.161593,9.437818 7.990998,9.518648 C 7.905701,9.557633 7.823920,9.651458 7.859681,9.738265 C 7.866716,9.759057 7.905407,9.760357 7.925926,9.765035 C 7.926805,9.792844 7.927391,9.830790 7.928271,9.858600 C 7.738623,9.876273 7.639549,9.981533 7.626652,10.129158 L 7.805161,10.128638 C 7.831248,10.078217 7.872285,10.028316 7.924753,9.984652 C 8.003602,9.909280 8.104142,10.032994 8.000671,10.074838 C 7.927391,10.110704 7.862319,10.202450 7.891631,10.274443 C 7.967256,10.386201 8.210544,10.308230 8.306980,10.242475 C 8.540596,10.086534 8.761314,9.843265 9.061467,9.765295 C 9.358397,9.677188 9.760849,9.767894 9.904184,10.002065 C 10.006482,10.029875 10.103504,10.071459 10.189681,10.124219 C 10.354414,10.225061 10.542596,10.299393 10.741331,10.315507 C 10.899615,10.330841 11.086917,10.284319 11.094539,10.126559 C 11.113591,10.009863 10.959704,9.943068 10.859164,10.008563 C 10.861802,10.008303 10.864440,10.007783 10.867372,10.007783 C 10.929806,10.007783 10.980515,10.050147 10.980515,10.102648 C 10.980515,10.155148 10.929806,10.197512 10.867372,10.197512 C 10.851543,10.197512 10.836594,10.194913 10.823111,10.189975 C 10.823111,10.190494 10.822820,10.190747 10.822818,10.190754 C 10.802006,10.185816 10.782660,10.175680 10.768004,10.162685 C 10.670103,10.069380 10.751003,9.933191 10.875872,9.904602 C 11.001913,9.866657 11.152869,9.932932 11.188336,10.049368 C 11.217941,10.156447 11.171336,10.280940 11.066985,10.343837 C 10.870303,10.456114 10.618221,10.405693 10.415676,10.337859 C 10.315429,10.302772 10.218407,10.254950 10.131644,10.201930 C 10.074192,10.167883 10.012931,10.138514 9.949031,10.114603 C 9.960169,10.166843 9.960756,10.223762 9.946979,10.285619 C 9.922943,10.410891 9.799540,10.520310 9.648291,10.502897 C 9.539544,10.495099 9.450729,10.427265 9.453367,10.330582 C 9.453074,10.298094 9.462161,10.264566 9.481213,10.235457 C 9.494111,10.206348 9.527233,10.185296 9.566511,10.185296 C 9.616927,10.185296 9.657964,10.219603 9.657964,10.261967 C 9.657964,10.304331 9.616927,10.338639 9.566511,10.338639 C 9.562994,10.338639 9.559476,10.338119 9.555959,10.337859 C 9.560355,10.364109 9.572666,10.381782 9.596409,10.391659 C 9.750883,10.449877 9.837939,10.330062 9.832956,10.199591 C 9.831197,10.150989 9.818007,10.108105 9.796023,10.070160 C 9.723623,10.055345 9.649170,10.048588 9.574132,10.052227 C 9.430211,10.058464 9.282772,10.101608 9.179008,10.190754 C 9.143248,10.223242 9.106315,10.257289 9.069089,10.290037 C 8.880613,10.450136 8.674844,10.632068 8.407227,10.696523 C 8.236925,10.734469 8.044346,10.691845 7.915374,10.586325 C 7.762952,10.462612 7.684396,10.296274 7.499438,10.218304 C 7.314480,10.296534 7.235924,10.462872 7.083503,10.586325 C 6.954531,10.691845 6.761952,10.734729 6.591943,10.696523 C 6.324325,10.632068 6.118263,10.450396 5.930081,10.290037 C 5.892855,10.257289 5.855922,10.223242 5.820161,10.190754 C 5.716104,10.101608 5.568959,10.058464 5.425037,10.052227 C 5.349999,10.048588 5.275254,10.055345 5.202560,10.070420 C 5.183214,10.103167 5.170610,10.139034 5.167386,10.178279 C 5.159765,10.253910 5.183214,10.358131 5.260598,10.391659 C 5.307204,10.414010 5.374328,10.411151 5.418003,10.383602 C 5.432365,10.374245 5.440573,10.357092 5.443211,10.338119 C 5.439693,10.338379 5.436176,10.338898 5.432365,10.338898 C 5.381949,10.338898 5.340912,10.304591 5.340912,10.262227 C 5.340912,10.219863 5.381949,10.185556 5.432365,10.185556 C 5.472816,10.185556 5.506817,10.207908 5.518835,10.238576 C 5.563096,10.307710 5.556061,10.396597 5.484834,10.455854 C 5.407157,10.510174 5.299289,10.519010 5.209888,10.482104 C 5.060984,10.414790 5.020241,10.253131 5.050725,10.114603 C 4.986825,10.138514 4.925270,10.168143 4.867526,10.202190 C 4.780763,10.255210 4.684033,10.303032 4.583494,10.338119 C 4.344309,10.422587 3.939219,10.480025 3.821971,10.211546 "/>
        <path style="fill:none;stroke-width:0.010000;stroke-linecap:round;stroke-linejoin:round;stroke-opacity:1;stroke:#000000;" d="M 7.859681,10.395557 C 7.900718,10.437661 7.941754,10.477166 7.988653,10.507575 C 8.097693,10.582427 8.244839,10.606857 8.377329,10.582427 C 8.616806,10.524208 8.817300,10.371646 8.999619,10.224542 C 9.077882,10.160346 9.152627,10.082895 9.249943,10.041311 C 9.389174,9.976075 9.545406,9.954503 9.699294,9.966199 C 9.544234,9.857040 9.287169,9.834949 9.106022,9.891087 C 8.896442,9.952944 8.739037,10.091212 8.576942,10.220643 C 8.430090,10.342277 8.237218,10.455854 8.024121,10.442339 C 7.953479,10.436102 7.899252,10.419468 7.859681,10.395557 "/>
        <path style="fill:none;stroke-width:0.010000;stroke-linecap:round;stroke-linejoin:round;stroke-opacity:1;stroke:#000000;" d="M 7.794609,10.150989 L 7.627531,10.186856 C 7.691138,10.226621 7.742727,10.274963 7.790212,10.323564 C 7.765004,10.273403 7.768521,10.212326 7.794609,10.150989 "/>
        <path style="fill:none;stroke-width:0.010000;stroke-linecap:round;stroke-linejoin:round;stroke-opacity:1;stroke:#000000;" d="M 7.206613,10.151249 C 7.211009,10.160866 7.214820,10.171002 7.218044,10.181398 C 7.236218,10.237017 7.229476,10.286658 7.205733,10.327463 C 7.254391,10.277562 7.306859,10.227920 7.372225,10.186856 C 7.319756,10.175680 7.258201,10.162425 7.206613,10.151249 "/>
        <path style="fill:none;stroke-width:0.010000;stroke-linecap:round;stroke-linejoin:round;stroke-opacity:1;stroke:#000000;" d="M 5.301634,9.966199 C 5.455229,9.954763 5.611168,9.976335 5.750106,10.041571 C 5.847714,10.083155 5.922167,10.160606 6.000429,10.224801 C 6.182749,10.371906 6.382949,10.524468 6.622720,10.582686 C 6.755210,10.607117 6.902355,10.582686 7.011396,10.507835 C 7.060053,10.476127 7.102262,10.435062 7.144765,10.391139 C 7.099624,10.422067 7.040121,10.440520 6.975928,10.442339 C 6.762831,10.455854 6.569959,10.342277 6.423106,10.220643 C 6.156075,9.997387 5.878199,9.787646 5.486885,9.884330 C 5.418882,9.900964 5.354689,9.928773 5.301634,9.966199 "/>
        <path style="fill:none;stroke-width:0.010000;stroke-linecap:round;stroke-linejoin:round;stroke-opacity:1;stroke:#000000;" d="M 4.989170,10.224282 C 4.893613,10.299393 4.781056,10.341497 4.682861,10.378144 C 4.479730,10.453775 4.317225,10.471287 4.313531,10.472228 C 4.608995,10.569172 5.000115,10.312186 5.007050,10.310569 L 4.989170,10.224282 "/>
        <path style="fill:none;stroke-width:0.010000;stroke-linecap:round;stroke-linejoin:round;stroke-opacity:1;stroke:#000000;" d="M 7.698466,9.615071 C 7.696481,9.611927 7.543406,9.498116 7.500024,9.300590 C 7.456643,9.498116 7.303567,9.611927 7.301583,9.615071 C 7.390398,9.699020 7.498040,9.926408 7.500024,9.929553 C 7.502009,9.932698 7.609651,9.699020 7.698466,9.615071 "/>
        <path style="fill:none;stroke-width:0.010000;stroke-linecap:round;stroke-linejoin:round;stroke-opacity:1;stroke:#000000;" d="M 10.686517,10.471968 C 10.682824,10.471027 10.520026,10.453515 10.317188,10.377884 C 10.218993,10.341238 10.106436,10.299133 10.010879,10.224022 L 9.992999,10.310049 C 9.992999,10.310309 10.391054,10.568912 10.686517,10.471968 "/>
        <path style="fill:none;stroke-width:0.010000;stroke-linecap:round;stroke-linejoin:round;stroke-opacity:1;stroke:#000000;" d="M 7.500024,10.312648 C 7.498641,10.314067 7.361672,10.388800 7.361672,10.454555 C 7.361672,10.520570 7.475402,10.771635 7.500024,10.771635 C 7.524939,10.771635 7.638376,10.520310 7.638376,10.454555 C 7.638376,10.388540 7.501408,10.314067 7.500024,10.312648 "/>
        <path style="fill:none;stroke-width:0.010000;stroke-linecap:round;stroke-linejoin:round;stroke-opacity:1;stroke:#000000;" d="M 8.367542,9.949282 C 8.709397,9.583617 9.179271,9.490553 9.580105,9.663076 A 0.019990,0.019990 0 0,1 9.566481,9.700590 C 9.207207,9.590386 8.795550,9.673460 8.513877,9.936541 C 8.463966,9.982289 8.327044,10.145496 8.325157,10.147606 L 8.169124,10.027913 L 8.178344,10.013519 L 8.287210,10.021671 L 8.367542,9.949282 "/>
        <path style="fill:none;stroke-width:0.010000;stroke-linecap:round;stroke-linejoin:round;stroke-opacity:1;stroke:#000000;" d="M 6.632507,9.949282 C 6.290652,9.583617 5.820778,9.490553 5.419944,9.663076 A 0.019990,0.019990 0 0,0 5.433567,9.700590 C 5.792842,9.590386 6.204498,9.673460 6.486172,9.936541 C 6.536083,9.982289 6.673005,10.145496 6.674892,10.147606 L 6.830925,10.027913 L 6.821705,10.013519 L 6.712839,10.021671 L 6.632507,9.949282 "/>
        <path style="fill:none;stroke-width:0.010000;stroke-linecap:round;stroke-linejoin:round;stroke-opacity:1;stroke:#000000;" d="M 11.178029,0.766982 C 11.197374,0.820002 11.204116,0.875881 11.188288,0.930201 C 11.142854,1.079904 10.920963,1.133184 10.790819,1.034681 C 10.698486,0.974644 10.700538,0.819223 10.822769,0.788554 C 10.822772,0.788562 10.822769,0.788814 10.823062,0.789334 C 10.836545,0.784396 10.851787,0.781797 10.867323,0.781797 C 10.929757,0.781797 10.980467,0.824161 10.980467,0.876661 C 10.980467,0.929161 10.929757,0.971525 10.867323,0.971525 C 10.864098,0.971525 10.861460,0.971005 10.858236,0.970745 C 10.901618,1.001154 10.971966,1.005052 11.019451,0.981921 C 11.098887,0.947874 11.109732,0.863406 11.081886,0.796091 C 10.989846,0.592328 10.638104,0.661982 10.454319,0.726957 C 10.360814,0.760225 10.274637,0.802849 10.189926,0.854829 C 10.103162,0.908109 10.005261,0.949693 9.902376,0.977503 C 9.745851,1.227788 9.355124,1.294063 9.061712,1.213494 C 8.761558,1.135523 8.541133,0.891995 8.307224,0.736314 C 8.207271,0.672378 8.057194,0.624036 7.942585,0.662762 C 7.889237,0.683814 7.876047,0.723059 7.889237,0.773220 C 7.900669,0.819482 7.937602,0.864965 7.982156,0.893554 C 7.988311,0.897453 7.996226,0.902651 8.000915,0.903951 C 8.035210,0.914866 8.053091,0.948134 8.040780,0.978542 C 8.023192,1.022986 7.957241,1.030003 7.924998,0.994137 C 7.876047,0.949693 7.833545,0.904470 7.804526,0.850151 L 7.626896,0.849631 C 7.639793,0.996995 7.738281,1.102256 7.928222,1.120189 C 7.927929,1.135003 7.927050,1.166971 7.926756,1.181786 L 7.925877,1.213754 L 7.890996,1.219991 C 7.880737,1.221811 7.871357,1.226489 7.865201,1.231947 C 7.827975,1.288865 7.866374,1.361638 7.914152,1.407641 C 7.980104,1.474175 8.087092,1.498606 8.184408,1.483272 C 8.313087,1.467418 8.419782,1.358259 8.370831,1.242343 C 8.350606,1.190103 8.301655,1.143060 8.247135,1.129545 C 8.198771,1.114991 8.127836,1.135263 8.126370,1.182825 C 8.126663,1.193221 8.129301,1.203618 8.135457,1.211934 C 8.149820,1.190622 8.176787,1.175808 8.208150,1.175808 C 8.254463,1.175808 8.291982,1.207256 8.291982,1.245982 C 8.291982,1.275610 8.270291,1.300821 8.239221,1.310957 L 8.240393,1.316155 C 8.170924,1.330190 8.069798,1.305239 8.042538,1.235326 C 8.009709,1.164372 8.055435,1.084323 8.129595,1.057553 C 8.375228,0.973864 8.567221,1.274311 8.419782,1.444287 C 8.257980,1.639473 7.874581,1.591391 7.779318,1.363197 C 7.752058,1.305759 7.754403,1.223890 7.801302,1.176848 C 7.777559,1.169830 7.754109,1.160994 7.731539,1.150078 C 7.616930,1.095758 7.548633,0.984260 7.534857,0.872502 C 7.533684,0.864705 7.533098,0.856908 7.532512,0.849111 L 7.499976,0.849111 L 7.467439,0.849111 C 7.466853,0.856908 7.465974,0.864445 7.465095,0.872502 C 7.451318,0.984260 7.383021,1.095758 7.268412,1.150078 C 7.245842,1.160994 7.222392,1.169830 7.198650,1.176848 C 7.245549,1.224150 7.248187,1.306019 7.220634,1.363197 C 7.124197,1.591651 6.743143,1.639473 6.580169,1.444287 C 6.432731,1.274311 6.625016,0.974124 6.870357,1.057553 C 6.944223,1.084323 6.990242,1.164632 6.957413,1.235326 C 6.929860,1.305239 6.829027,1.330190 6.759558,1.316155 C 6.759570,1.316103 6.759851,1.314076 6.760730,1.310957 C 6.729953,1.300561 6.707969,1.275350 6.707969,1.245982 C 6.707969,1.207256 6.745488,1.175808 6.791801,1.175808 C 6.822872,1.175808 6.849838,1.190363 6.864201,1.211415 C 6.871236,1.202578 6.875047,1.191142 6.873288,1.176588 C 6.865081,1.132924 6.799715,1.115511 6.752816,1.129286 C 6.698296,1.142800 6.649345,1.189843 6.629120,1.242083 C 6.556720,1.438569 6.838407,1.540710 7.009002,1.459881 C 7.094299,1.420896 7.176080,1.327071 7.140319,1.240264 C 7.133284,1.219472 7.094593,1.218172 7.074074,1.213494 C 7.073195,1.185684 7.072609,1.147739 7.071729,1.119929 C 7.261377,1.102256 7.360451,0.996995 7.373348,0.849371 L 7.194839,0.849891 C 7.168752,0.900312 7.127715,0.950213 7.075247,0.993877 C 6.996398,1.069248 6.895858,0.945535 6.999329,0.903691 C 7.072609,0.867824 7.137681,0.776079 7.108369,0.704086 C 7.032744,0.592328 6.789456,0.670299 6.693020,0.736054 C 6.459404,0.891995 6.238686,1.135263 5.938533,1.213234 C 5.641603,1.301341 5.239151,1.210635 5.095816,0.976463 C 4.993518,0.948654 4.896496,0.907069 4.810319,0.854309 C 4.645586,0.753467 4.457404,0.679135 4.258669,0.663021 C 4.100385,0.647687 3.913083,0.694210 3.905461,0.851970 C 3.886409,0.968666 4.040296,1.035461 4.140836,0.969966 C 4.138198,0.970226 4.135560,0.970745 4.132628,0.970745 C 4.070194,0.970745 4.019485,0.928381 4.019485,0.875881 C 4.019485,0.823381 4.070194,0.781017 4.132628,0.781017 C 4.148457,0.781017 4.163406,0.783616 4.176889,0.788554 C 4.176889,0.788034 4.177180,0.787782 4.177182,0.787774 C 4.197994,0.792713 4.217340,0.802849 4.231996,0.815844 C 4.329897,0.909149 4.248997,1.045337 4.124128,1.073926 C 3.998087,1.111872 3.847131,1.045597 3.811664,0.929161 C 3.782059,0.822081 3.828664,0.697588 3.933015,0.634692 C 4.129697,0.522414 4.381779,0.572835 4.584324,0.640670 C 4.684571,0.675757 4.781593,0.723579 4.868356,0.776599 C 4.925808,0.810646 4.987069,0.840015 5.050969,0.863926 C 5.039831,0.811685 5.039244,0.754767 5.053021,0.692910 C 5.077057,0.567637 5.200460,0.458219 5.351709,0.475632 C 5.460456,0.483429 5.549271,0.551264 5.546633,0.647947 C 5.546926,0.680435 5.537839,0.713962 5.518787,0.743071 C 5.505889,0.772180 5.472767,0.793232 5.433489,0.793232 C 5.383073,0.793232 5.342036,0.758925 5.342036,0.716561 C 5.342036,0.674197 5.383073,0.639890 5.433489,0.639890 C 5.437006,0.639890 5.440524,0.640410 5.444041,0.640670 C 5.439645,0.614420 5.427334,0.596746 5.403591,0.586870 C 5.249117,0.528652 5.162061,0.648467 5.167044,0.778938 C 5.168803,0.827539 5.181993,0.870423 5.203977,0.908369 C 5.276377,0.923183 5.350830,0.929941 5.425868,0.926302 C 5.569789,0.920064 5.717228,0.876921 5.820992,0.787774 C 5.856752,0.755287 5.893685,0.721239 5.930911,0.688492 C 6.119387,0.528392 6.325156,0.346461 6.592773,0.282005 C 6.763075,0.244060 6.955654,0.286683 7.084626,0.392204 C 7.237048,0.515917 7.315604,0.682254 7.500562,0.760225 C 7.685520,0.681994 7.764076,0.515657 7.916497,0.392204 C 8.045469,0.286683 8.238048,0.243800 8.408057,0.282005 C 8.675675,0.346461 8.881737,0.528132 9.069919,0.688492 C 9.107145,0.721239 9.144078,0.755287 9.179839,0.787774 C 9.283896,0.876921 9.431041,0.920064 9.574963,0.926302 C 9.650001,0.929941 9.724746,0.923183 9.797440,0.908109 C 9.816786,0.875361 9.829390,0.839495 9.832614,0.800250 C 9.840235,0.724618 9.816786,0.620398 9.739402,0.586870 C 9.692796,0.564519 9.625672,0.567378 9.581997,0.594927 C 9.567635,0.604284 9.559427,0.621437 9.556789,0.640410 C 9.560307,0.640150 9.563824,0.639630 9.567635,0.639630 C 9.618051,0.639630 9.659088,0.673937 9.659088,0.716301 C 9.659088,0.758665 9.618051,0.792972 9.567635,0.792972 C 9.527184,0.792972 9.493183,0.770621 9.481165,0.739952 C 9.436904,0.670819 9.443939,0.581932 9.515166,0.522674 C 9.592843,0.468355 9.700711,0.459518 9.790112,0.496424 C 9.939016,0.563739 9.979759,0.725398 9.949275,0.863926 C 10.013175,0.840015 10.074730,0.810386 10.132474,0.776339 C 10.219237,0.723319 10.315967,0.675497 10.416506,0.640410 C 10.655691,0.555942 11.060781,0.498504 11.178029,0.766982 "/>
        <path style="fill:none;stroke-width:0.010000;stroke-linecap:round;stroke-linejoin:round;stroke-opacity:1;stroke:#000000;" d="M 7.140319,0.582972 C 7.099282,0.540868 7.058246,0.501362 7.011347,0.470954 C 6.902307,0.396102 6.755161,0.371671 6.622671,0.396102 C 6.383194,0.454320 6.182700,0.606883 6.000381,0.753987 C 5.922118,0.818183 5.847373,0.895634 5.750057,0.937218 C 5.610826,1.002453 5.454594,1.024025 5.300706,1.012330 C 5.455766,1.121488 5.712831,1.143580 5.893978,1.087441 C 6.103558,1.025585 6.260963,0.887317 6.423058,0.757886 C 6.569910,0.636252 6.762782,0.522674 6.975879,0.536189 C 7.046521,0.542427 7.100748,0.559061 7.140319,0.582972 "/>
        <path style="fill:none;stroke-width:0.010000;stroke-linecap:round;stroke-linejoin:round;stroke-opacity:1;stroke:#000000;" d="M 7.205391,0.827539 L 7.372469,0.791673 C 7.308862,0.751908 7.257273,0.703566 7.209788,0.654964 C 7.234996,0.705126 7.231479,0.766203 7.205391,0.827539 "/>
        <path style="fill:none;stroke-width:0.010000;stroke-linecap:round;stroke-linejoin:round;stroke-opacity:1;stroke:#000000;" d="M 7.793387,0.827279 C 7.788991,0.817663 7.785180,0.807527 7.781956,0.797131 C 7.763782,0.741512 7.770524,0.691871 7.794267,0.651066 C 7.745609,0.700967 7.693141,0.750608 7.627775,0.791673 C 7.680244,0.802849 7.741799,0.816104 7.793387,0.827279 "/>
        <path style="fill:none;stroke-width:0.010000;stroke-linecap:round;stroke-linejoin:round;stroke-opacity:1;stroke:#000000;" d="M 9.698366,1.012330 C 9.544771,1.023765 9.388832,1.002193 9.249894,0.936958 C 9.152286,0.895374 9.077833,0.817923 8.999571,0.753727 C 8.817251,0.606623 8.617051,0.454060 8.377280,0.395842 C 8.244790,0.371411 8.097645,0.395842 7.988604,0.470694 C 7.939947,0.502402 7.897738,0.543467 7.855235,0.587390 C 7.900376,0.556462 7.959879,0.538009 8.024072,0.536189 C 8.237169,0.522674 8.430041,0.636252 8.576894,0.757886 C 8.843925,0.981141 9.121801,1.190882 9.513115,1.094199 C 9.581118,1.077565 9.645311,1.049756 9.698366,1.012330 "/>
        <path style="fill:none;stroke-width:0.010000;stroke-linecap:round;stroke-linejoin:round;stroke-opacity:1;stroke:#000000;" d="M 10.010830,0.754247 C 10.106387,0.679135 10.218944,0.637031 10.317139,0.600385 C 10.520270,0.524754 10.682775,0.507241 10.686469,0.506301 C 10.391005,0.409357 9.999885,0.666343 9.992950,0.667960 L 10.010830,0.754247 "/>
        <path style="fill:none;stroke-width:0.010000;stroke-linecap:round;stroke-linejoin:round;stroke-opacity:1;stroke:#000000;" d="M 7.301534,1.363457 C 7.303519,1.366602 7.456594,1.480413 7.499976,1.677939 C 7.543357,1.480413 7.696433,1.366602 7.698417,1.363457 C 7.609602,1.279509 7.501960,1.052121 7.499976,1.048976 C 7.497991,1.045831 7.390349,1.279509 7.301534,1.363457 "/>
        <path style="fill:none;stroke-width:0.010000;stroke-linecap:round;stroke-linejoin:round;stroke-opacity:1;stroke:#000000;" d="M 4.313483,0.506560 C 4.317176,0.507501 4.479974,0.525014 4.682812,0.600645 C 4.781007,0.637291 4.893564,0.679395 4.989121,0.754507 L 5.007001,0.668479 C 5.007001,0.668219 4.608946,0.409617 4.313483,0.506560 "/>
        <path style="fill:none;stroke-width:0.010000;stroke-linecap:round;stroke-linejoin:round;stroke-opacity:1;stroke:#000000;" d="M 7.499976,0.665880 C 7.501359,0.664461 7.638328,0.589729 7.638328,0.523974 C 7.638328,0.457959 7.524598,0.206894 7.499976,0.206894 C 7.475061,0.206894 7.361624,0.458219 7.361624,0.523974 C 7.361624,0.589989 7.498592,0.664461 7.499976,0.665880 "/>
        <path style="fill:none;stroke-width:0.010000;stroke-linecap:round;stroke-linejoin:round;stroke-opacity:1;stroke:#000000;" d="M 6.632458,1.029246 C 6.290603,1.394912 5.820729,1.487975 5.419895,1.315453 A 0.019990,0.019990 0 0,1 5.433519,1.277938 C 5.792793,1.388142 6.204450,1.305068 6.486123,1.041988 C 6.536034,0.996239 6.672956,0.833033 6.674843,0.830922 L 6.830876,0.950615 L 6.821656,0.965009 L 6.712790,0.956857 L 6.632458,1.029246 "/>
        <path style="fill:none;stroke-width:0.010000;stroke-linecap:round;stroke-linejoin:round;stroke-opacity:1;stroke:#000000;" d="M 8.367493,1.029246 C 8.709348,1.394912 9.179222,1.487975 9.580056,1.315453 A 0.019990,0.019990 0 0,0 9.566433,1.277938 C 9.207158,1.388142 8.795502,1.305068 8.513828,1.041988 C 8.463917,0.996239 8.326995,0.833033 8.325108,0.830922 L 8.169075,0.950615 L 8.178295,0.965009 L 8.287161,0.956857 L 8.367493,1.029246 "/>
    </g>
</svg>
